<svg width="219" height="45" viewBox="0 0 219 45" fill="none" xmlns="http://www.w3.org/2000/svg">
    <path opacity="0.7" d="M196.41 0.970032H22.6697C10.6741 0.970032 0.949707 10.6944 0.949707 22.69C0.949707 34.6857 10.6741 44.41 22.6697 44.41H196.41C208.405 44.41 218.13 34.6857 218.13 22.69C218.13 10.6944 208.405 0.970032 196.41 0.970032Z" fill="#262626"/>
    <path opacity="0.7" d="M76.9099 8.44C78.5077 8.39859 80.0956 8.70335 81.5645 9.33339C83.0334 9.96342 84.3486 10.9038 85.4199 12.09C87.5913 14.5639 88.7887 17.7433 88.7887 21.035C88.7887 24.3267 87.5913 27.5061 85.4199 29.98C84.3504 31.1691 83.0357 32.112 81.5666 32.7439C80.0974 33.3758 78.5087 33.6815 76.9099 33.64H67.6499V8.44H76.9099ZM76.9099 32.44C78.3386 32.4795 79.7586 32.2054 81.0699 31.637C82.3812 31.0686 83.552 30.2197 84.4999 29.15C86.4298 26.9003 87.4907 24.0341 87.4907 21.07C87.4907 18.1059 86.4298 15.2397 84.4999 12.99C83.553 11.9185 82.3826 11.0677 81.0712 10.4976C79.7598 9.92739 78.3394 9.65173 76.9099 9.69H68.9999V32.44H76.9099Z" fill="white"/>
    <path opacity="0.7" d="M101.78 34.06C99.6364 34.0275 97.57 33.2546 95.9313 31.8724C94.2925 30.4901 93.1822 28.5837 92.7887 26.4763C92.3952 24.3688 92.7427 22.1902 93.7722 20.3097C94.8018 18.4293 96.45 16.9628 98.4375 16.1589C100.425 15.355 102.629 15.2633 104.677 15.8992C106.724 16.5351 108.488 17.8595 109.671 19.6479C110.853 21.4363 111.38 23.5786 111.163 25.7114C110.946 27.8442 109.998 29.8364 108.48 31.35C107.607 32.2349 106.562 32.9318 105.41 33.3979C104.258 33.8639 103.023 34.0892 101.78 34.06ZM96 30.44C97.3498 31.8374 99.1438 32.7217 101.074 32.9412C103.005 33.1607 104.951 32.7019 106.58 31.6433C108.21 30.5847 109.42 28.9923 110.003 27.1391C110.587 25.286 110.508 23.2875 109.779 21.4864C109.051 19.6852 107.718 18.1936 106.011 17.2673C104.303 16.341 102.326 16.0377 100.419 16.4094C98.5118 16.7811 96.7935 17.8046 95.5585 19.3045C94.3235 20.8043 93.6488 22.6871 93.65 24.63C93.6234 25.7077 93.8183 26.7793 94.2225 27.7787C94.6267 28.778 95.2317 29.6838 96 30.44Z" fill="white"/>
    <path opacity="0.7" d="M124 15.27C124.923 15.2323 125.844 15.386 126.704 15.7216C127.565 16.0572 128.346 16.5674 129 17.22C129.642 17.9074 130.14 18.7162 130.465 19.599C130.789 20.4817 130.934 21.4205 130.89 22.36V33.67H129.63V22.36C129.663 21.586 129.543 20.8132 129.277 20.0856C129.011 19.358 128.605 18.6901 128.08 18.12C127.531 17.5703 126.872 17.142 126.147 16.863C125.422 16.5839 124.646 16.4602 123.87 16.5C122.969 16.4689 122.071 16.6313 121.238 16.9763C120.405 17.3213 119.656 17.8408 119.04 18.5C117.72 20.0492 117.051 22.0484 117.17 24.08V33.66H115.87V15.66H117.17V19.66C117.705 18.3027 118.658 17.1505 119.89 16.37C121.129 15.6221 122.554 15.2406 124 15.27Z" fill="white"/>
    <path opacity="0.7" d="M144.26 15.27C145.473 15.2313 146.68 15.4634 147.792 15.9495C148.904 16.4356 149.894 17.1634 150.69 18.08C152.316 19.913 153.194 22.2901 153.15 24.74C153.165 24.9431 153.165 25.1469 153.15 25.35H136.38C136.412 26.3729 136.648 27.3791 137.074 28.3097C137.5 29.2403 138.107 30.0767 138.86 30.77C140.384 32.152 142.383 32.8933 144.44 32.84C145.836 32.8463 147.211 32.5025 148.44 31.84C149.535 31.2638 150.438 30.3812 151.04 29.3L152.16 29.95C151.423 31.2203 150.346 32.2593 149.05 32.95C147.622 33.6952 146.03 34.07 144.42 34.04C143.177 34.0837 141.939 33.8719 140.781 33.4178C139.623 32.9637 138.571 32.277 137.69 31.4C136.817 30.5114 136.134 29.455 135.682 28.2948C135.23 27.1345 135.018 25.8946 135.06 24.65C135.027 23.4174 135.239 22.1905 135.683 21.0405C136.128 19.8904 136.796 18.8399 137.65 17.95C138.502 17.0642 139.53 16.3677 140.669 15.9059C141.808 15.4442 143.032 15.2275 144.26 15.27ZM144.26 16.5C143.243 16.4693 142.231 16.6428 141.283 17.0104C140.335 17.378 139.47 17.9321 138.74 18.64C137.252 20.0974 136.391 22.0777 136.34 24.16H151.86C151.788 22.0649 150.931 20.0733 149.46 18.58C148.777 17.9017 147.965 17.3679 147.072 17.0105C146.178 16.6531 145.222 16.4795 144.26 16.5Z" fill="white"/>
</svg>
