<svg width="218" height="45" viewBox="0 0 218 45" fill="none" xmlns="http://www.w3.org/2000/svg">
    <path opacity="0.7" d="M196.27 0.970032H22.5296C10.5339 0.970032 0.80957 10.6944 0.80957 22.69C0.80957 34.6857 10.5339 44.41 22.5296 44.41H196.27C208.265 44.41 217.99 34.6857 217.99 22.69C217.99 10.6944 208.265 0.970032 196.27 0.970032Z" fill="#262626"/>
    <path opacity="0.7" d="M71.3797 33.67H69.8997L63.6797 23.12H54.8197V33.67H53.4897V8.44H63.3497C65.2885 8.44 67.1478 9.21016 68.5187 10.5811C69.8896 11.9519 70.6597 13.8113 70.6597 15.75C70.6751 17.4038 70.1168 19.0117 69.0797 20.3C68.0773 21.5945 66.6683 22.5139 65.0797 22.91L71.3797 33.67ZM54.8197 21.9H63.3497C64.138 21.9085 64.9193 21.7529 65.6441 21.443C66.369 21.1331 67.0213 20.6757 67.5597 20.1C68.695 18.9508 69.3316 17.4004 69.3316 15.785C69.3316 14.1696 68.695 12.6192 67.5597 11.47C67.0173 10.9008 66.3638 10.4491 65.6396 10.1429C64.9154 9.83667 64.136 9.68253 63.3497 9.69H54.8197V21.9Z" fill="white"/>
    <path opacity="0.7" d="M82.3199 15.27C83.5332 15.2306 84.74 15.4624 85.8524 15.9485C86.9648 16.4347 87.9546 17.1628 88.7499 18.08C90.3788 19.912 91.2604 22.2889 91.2199 24.74C91.2361 24.943 91.2361 25.147 91.2199 25.35H74.4399C74.4724 26.3729 74.7084 27.3791 75.1342 28.3097C75.56 29.2403 76.1671 30.0767 76.9199 30.77C78.4445 32.1519 80.4429 32.8933 82.4999 32.84C83.896 32.8476 85.2716 32.5037 86.4999 31.84C87.5955 31.2612 88.5015 30.3795 89.1099 29.3L90.2199 29.95C89.4856 31.2223 88.4078 32.2619 87.1099 32.95C85.6821 33.6952 84.0901 34.07 82.4799 34.04C81.2372 34.0837 79.9988 33.8719 78.8412 33.4178C77.6836 32.9637 76.6315 32.277 75.7499 31.4C74.0775 29.5595 73.1509 27.1619 73.1509 24.675C73.1509 22.1881 74.0775 19.7905 75.7499 17.95C76.596 17.0677 77.6181 16.3732 78.75 15.9115C79.8818 15.4498 81.0981 15.2313 82.3199 15.27ZM82.3199 16.5C81.3035 16.4698 80.2914 16.6436 79.3433 17.0112C78.3952 17.3788 77.5304 17.9326 76.7999 18.64C75.3118 20.0974 74.4508 22.0777 74.3999 24.16H89.9199C89.8467 22.0671 88.9943 20.0771 87.5299 18.58C86.8449 17.9023 86.0308 17.369 85.1358 17.0117C84.2409 16.6544 83.2833 16.4804 82.3199 16.5Z" fill="white"/>
    <path opacity="0.7" d="M103.92 34.06C102.66 34.1011 101.405 33.8885 100.23 33.4349C99.0539 32.9812 97.9814 32.2958 97.0759 31.4193C96.1703 30.5429 95.4503 29.4933 94.9585 28.3329C94.4668 27.1726 94.2134 25.9252 94.2134 24.665C94.2134 23.4048 94.4668 22.1574 94.9585 20.9971C95.4503 19.8368 96.1703 18.7872 97.0759 17.9107C97.9814 17.0342 99.0539 16.3488 100.23 15.8952C101.405 15.4415 102.66 15.2289 103.92 15.27C105.588 15.2471 107.232 15.6718 108.68 16.5C110.032 17.2458 111.124 18.3867 111.81 19.77L110.76 20.38C110.168 19.187 109.226 18.2032 108.06 17.56C106.8 16.8411 105.37 16.4749 103.92 16.5C102.845 16.4733 101.776 16.6681 100.78 17.0724C99.7842 17.4767 98.882 18.0818 98.1299 18.85C96.6295 20.4141 95.7918 22.4976 95.7918 24.665C95.7918 26.8324 96.6295 28.9159 98.1299 30.48C98.8815 31.2495 99.7834 31.8562 100.779 32.2622C101.776 32.6682 102.845 32.8649 103.92 32.84C105.367 32.8668 106.795 32.5005 108.05 31.78C109.217 31.1177 110.171 30.1359 110.8 28.95L111.8 29.56C111.094 30.9416 109.994 32.083 108.64 32.84C107.203 33.6583 105.574 34.0793 103.92 34.06Z" fill="white"/>
    <path opacity="0.7" d="M124.05 15.27C125.262 15.2307 126.467 15.4626 127.578 15.9487C128.688 16.4349 129.677 17.1631 130.47 18.08C132.103 19.9094 132.985 22.2881 132.94 24.74C132.961 24.9428 132.961 25.1472 132.94 25.35H116.16C116.196 26.3731 116.435 27.3789 116.863 28.3091C117.29 29.2394 117.897 30.0758 118.65 30.77C120.174 32.1519 122.173 32.8933 124.23 32.84C125.626 32.8493 127.002 32.5053 128.23 31.84C129.33 31.2668 130.237 30.3837 130.84 29.3L131.96 29.95C131.222 31.2226 130.14 32.2621 128.84 32.95C127.416 33.696 125.827 34.0709 124.22 34.04C122.974 34.0911 121.732 33.8829 120.571 33.4287C119.411 32.9745 118.357 32.2841 117.477 31.4013C116.597 30.5186 115.91 29.4626 115.459 28.3005C115.009 27.1383 114.805 25.8952 114.86 24.65C114.825 23.4172 115.036 22.1896 115.48 21.0392C115.925 19.8889 116.595 18.8386 117.45 17.95C118.3 17.0649 119.327 16.3688 120.464 15.9071C121.602 15.4453 122.823 15.2283 124.05 15.27ZM124.05 16.5C123.032 16.4702 122.018 16.6441 121.069 17.0116C120.119 17.3791 119.252 17.9328 118.52 18.64C117.035 20.099 116.178 22.0792 116.13 24.16H131.64C131.576 22.065 130.723 20.0715 129.25 18.58C128.567 17.9026 127.754 17.3694 126.861 17.0121C125.968 16.6548 125.012 16.4806 124.05 16.5Z" fill="white"/>
    <path opacity="0.7" d="M145.65 15.27C146.573 15.2317 147.494 15.3852 148.354 15.7208C149.215 16.0565 149.997 16.567 150.65 17.22C151.292 17.9074 151.79 18.7163 152.114 19.599C152.439 20.4818 152.584 21.4205 152.54 22.36V33.67H151.3V22.36C151.333 21.5861 151.213 20.8132 150.947 20.0856C150.681 19.3581 150.274 18.6901 149.75 18.12C149.201 17.5703 148.542 17.1421 147.817 16.863C147.092 16.584 146.316 16.4603 145.54 16.5C144.639 16.4689 143.741 16.6313 142.908 16.9763C142.075 17.3213 141.325 17.8409 140.71 18.5C139.395 20.0518 138.725 22.0492 138.84 24.08V33.66H137.55V15.66H138.84V19.66C139.378 18.3045 140.33 17.1532 141.56 16.37C142.793 15.6263 144.21 15.245 145.65 15.27Z" fill="white"/>
    <path opacity="0.7" d="M167 16.86H161.45V29.44C161.45 30.9533 161.86 31.9133 162.68 32.32C164.074 32.7787 165.563 32.8649 167 32.57V33.69C164.65 34.05 162.92 33.9 161.83 33.24C160.74 32.58 160.19 31.31 160.19 29.44V16.86H156V15.67H160.14V11.02L161.4 10.63V15.63H167V16.86Z" fill="white"/>
</svg>
