<svg width="218" height="45" viewBox="0 0 218 45" fill="none" xmlns="http://www.w3.org/2000/svg">
    <path opacity="0.7" d="M195.56 0.970032H21.8196C9.82402 0.970032 0.0996094 10.6944 0.0996094 22.69C0.0996094 34.6857 9.82402 44.41 21.8196 44.41H195.56C207.555 44.41 217.28 34.6857 217.28 22.69C217.28 10.6944 207.555 0.970032 195.56 0.970032Z" fill="#262626"/>
    <path opacity="0.7" d="M50.9998 33.67H49.5198L43.2998 23.12H34.3998V33.67H33.0698V8.44H42.9298C44.8685 8.44 46.7279 9.21016 48.0988 10.5811C49.4696 11.9519 50.2398 13.8113 50.2398 15.75C50.2552 17.4038 49.6968 19.0117 48.6598 20.3C47.6552 21.5922 46.2471 22.511 44.6598 22.91L50.9998 33.67ZM34.3998 21.9H42.9298C43.718 21.9085 44.4994 21.7529 45.2242 21.443C45.949 21.1331 46.6014 20.6757 47.1398 20.1C48.2751 18.9508 48.9117 17.4004 48.9117 15.785C48.9117 14.1696 48.2751 12.6192 47.1398 11.47C46.5974 10.9008 45.9439 10.4491 45.2197 10.1429C44.4955 9.83667 43.716 9.68253 42.9298 9.69H34.3998V21.9Z" fill="white"/>
    <path opacity="0.7" d="M61.8999 15.27C63.1131 15.2313 64.3197 15.4634 65.4319 15.9495C66.5442 16.4355 67.5342 17.1633 68.3299 18.08C69.956 19.9129 70.834 22.29 70.7898 24.74C70.8046 24.943 70.8046 25.1469 70.7898 25.35H53.9999C54.0323 26.3729 54.2683 27.379 54.6941 28.3097C55.12 29.2403 55.727 30.0767 56.4798 30.77C58.0044 32.1519 60.0029 32.8933 62.0599 32.84C63.4558 32.8462 64.8311 32.5024 66.0599 31.84C67.1555 31.2611 68.0614 30.3794 68.6698 29.3L69.7799 29.95C69.043 31.2202 67.9658 32.2593 66.6698 32.95C65.2421 33.6951 63.6501 34.0699 62.0398 34.04C60.7971 34.0836 59.5587 33.8719 58.4011 33.4178C57.2435 32.9637 56.1914 32.2769 55.3099 31.4C54.4375 30.5114 53.7546 29.455 53.3025 28.2947C52.8505 27.1345 52.6386 25.8945 52.6799 24.65C52.6469 23.4174 52.8589 22.1905 53.3034 21.0404C53.748 19.8903 54.4164 18.8399 55.2699 17.95C56.1239 17.0616 57.156 16.3636 58.2986 15.9017C59.4411 15.4399 60.6684 15.2246 61.8999 15.27ZM61.8999 16.5C60.8834 16.4692 59.8711 16.6428 58.9229 17.0104C57.9747 17.378 57.11 17.9321 56.3799 18.64C54.8918 20.0974 54.0307 22.0777 53.9798 24.16H69.4999C69.4278 22.0648 68.5712 20.0733 67.0998 18.58C66.4173 17.9016 65.6051 17.3678 64.7117 17.0104C63.8182 16.6531 62.8619 16.4794 61.8999 16.5Z" fill="white"/>
    <path opacity="0.7" d="M94.6999 15.27C95.5498 15.2357 96.3978 15.3749 97.1921 15.6792C97.9865 15.9835 98.7105 16.4466 99.3199 17.04C99.9403 17.7094 100.419 18.4975 100.726 19.3568C101.034 20.2162 101.165 21.1289 101.11 22.04V33.63H99.8099V22.08C99.9134 20.5703 99.4135 19.0813 98.4199 17.94C97.9351 17.453 97.3535 17.0732 96.7127 16.8252C96.0719 16.5771 95.3862 16.4663 94.6999 16.5C93.911 16.4759 93.1267 16.6276 92.4037 16.9441C91.6807 17.2606 91.0373 17.734 90.5199 18.33C89.352 19.8247 88.7753 21.6972 88.8999 23.59V33.67H87.6099V22.08C87.7115 20.5774 87.2277 19.0938 86.2599 17.94C85.7933 17.4567 85.2292 17.0783 84.605 16.83C83.9809 16.5817 83.3109 16.4692 82.6399 16.5C81.8381 16.4777 81.041 16.6298 80.3038 16.9458C79.5665 17.2617 78.9067 17.734 78.3699 18.33C77.172 19.8112 76.5758 21.6891 76.6999 23.59V33.67H75.3999V15.67H76.6999V19.2C77.158 17.9961 77.985 16.9678 79.0626 16.2619C80.1401 15.5561 81.4132 15.2089 82.6999 15.27C83.9898 15.2439 85.2567 15.6139 86.3299 16.33C87.3847 17.0757 88.1481 18.1643 88.4899 19.41C88.986 18.1418 89.8674 17.0611 91.0099 16.32C92.1108 15.6167 93.3937 15.2517 94.6999 15.27Z" fill="white"/>
    <path opacity="0.7" d="M114.68 34.06C112.53 34.0316 110.457 33.2603 108.812 31.877C107.166 30.4937 106.05 28.5836 105.653 26.471C105.256 24.3584 105.602 22.1735 106.633 20.287C107.663 18.4006 109.315 16.929 111.307 16.1219C113.3 15.3148 115.51 15.2221 117.563 15.8594C119.616 16.4967 121.385 17.8248 122.57 19.6182C123.755 21.4117 124.283 23.5599 124.064 25.6984C123.846 27.8368 122.894 29.8337 121.37 31.35C120.499 32.2351 119.456 32.9322 118.306 33.3983C117.155 33.8644 115.921 34.0896 114.68 34.06ZM108.9 30.44C110.248 31.8272 112.037 32.7024 113.96 32.9158C115.883 33.1291 117.82 32.6673 119.44 31.6093C121.06 30.5514 122.262 28.9632 122.839 27.1168C123.417 25.2703 123.335 23.2805 122.607 21.488C121.879 19.6955 120.55 18.212 118.848 17.2913C117.147 16.3707 115.178 16.0704 113.279 16.4417C111.38 16.813 109.67 17.8329 108.44 19.3267C107.211 20.8205 106.539 22.6953 106.54 24.63C106.514 25.7085 106.71 26.7807 107.116 27.7802C107.522 28.7797 108.129 29.685 108.9 30.44Z" fill="white"/>
    <path opacity="0.7" d="M141.53 15.67H142.9L135.02 33.67H133.54L125.69 15.67H127L134.27 32.34L141.53 15.67Z" fill="white"/>
    <path opacity="0.7" d="M153.63 15.27C154.843 15.2313 156.05 15.4635 157.162 15.9495C158.274 16.4356 159.264 17.1634 160.06 18.08C161.686 19.913 162.564 22.2901 162.52 24.74C162.535 24.9431 162.535 25.147 162.52 25.35H145.75C145.782 26.3729 146.018 27.3791 146.444 28.3097C146.87 29.2403 147.477 30.0767 148.23 30.77C149.754 32.152 151.753 32.8933 153.81 32.84C155.206 32.8493 156.582 32.5053 157.81 31.84C158.909 31.2668 159.817 30.3837 160.42 29.3L161.54 29.95C160.803 31.2203 159.726 32.2593 158.43 32.95C157.002 33.6952 155.41 34.07 153.8 34.04C152.557 34.0843 151.318 33.8728 150.161 33.4187C149.003 32.9645 147.951 32.2775 147.07 31.4C145.397 29.5595 144.471 27.1619 144.471 24.675C144.471 22.1882 145.397 19.7905 147.07 17.95C147.916 17.0705 148.937 16.3778 150.066 15.9162C151.196 15.4547 152.41 15.2346 153.63 15.27ZM153.63 16.5C152.612 16.4702 151.598 16.6441 150.649 17.0116C149.699 17.3791 148.832 17.9328 148.1 18.64C146.615 20.099 145.758 22.0792 145.71 24.16H161.23C161.158 22.0649 160.301 20.0733 158.83 18.58C158.147 17.9026 157.334 17.3694 156.441 17.0121C155.548 16.6548 154.592 16.4806 153.63 16.5Z" fill="white"/>
    <path opacity="0.7" d="M183.37 8.44H184.66V33.64H183.37V28.85C182.653 30.3933 181.517 31.7034 180.09 32.63C178.622 33.5755 176.906 34.0628 175.16 34.03C173.9 34.0711 172.645 33.8585 171.469 33.4049C170.294 32.9512 169.221 32.2658 168.316 31.3893C167.41 30.5128 166.69 29.4632 166.198 28.3029C165.707 27.1426 165.453 25.8952 165.453 24.635C165.453 23.3748 165.707 22.1274 166.198 20.9671C166.69 19.8068 167.41 18.7572 168.316 17.8807C169.221 17.0042 170.294 16.3188 171.469 15.8651C172.645 15.4115 173.9 15.1989 175.16 15.24C176.906 15.2108 178.623 15.7016 180.09 16.65C181.521 17.5716 182.659 18.8831 183.37 20.43V8.44ZM169.45 30.44C170.798 31.8272 172.587 32.7025 174.51 32.9158C176.433 33.1291 178.37 32.6673 179.99 31.6093C181.61 30.5514 182.812 28.9632 183.389 27.1168C183.967 25.2703 183.885 23.2805 183.157 21.488C182.428 19.6955 181.1 18.212 179.398 17.2914C177.697 16.3707 175.728 16.0704 173.829 16.4417C171.93 16.813 170.22 17.8329 168.99 19.3267C167.761 20.8205 167.089 22.6953 167.09 24.63C167.064 25.7085 167.26 26.7807 167.666 27.7802C168.072 28.7797 168.679 29.685 169.45 30.44Z" fill="white"/>
</svg>
