<svg width="53" height="53" viewBox="0 0 53 53" fill="none" xmlns="http://www.w3.org/2000/svg">
    <path d="M40.0502 0.219971H12.2302C5.57513 0.219971 0.180176 5.61494 0.180176 12.27V40.09C0.180176 46.745 5.57513 52.14 12.2302 52.14H40.0502C46.7052 52.14 52.1002 46.745 52.1002 40.09V12.27C52.1002 5.61494 46.7052 0.219971 40.0502 0.219971Z" fill="#262626"/>
    <path d="M26.14 40.32C33.9493 40.32 40.28 33.9893 40.28 26.18C40.28 18.3707 33.9493 12.04 26.14 12.04C18.3307 12.04 12 18.3707 12 26.18C12 33.9893 18.3307 40.32 26.14 40.32Z" fill="white"/>
    <path d="M20.32 32.78C20.2175 32.7813 20.1158 32.7616 20.0212 32.722C19.9266 32.6824 19.8411 32.6239 19.77 32.55C19.6966 32.4786 19.6383 32.393 19.5988 32.2985C19.5593 32.204 19.5393 32.1025 19.54 32C19.5387 31.8975 19.5585 31.7958 19.598 31.7012C19.6376 31.6066 19.6961 31.5211 19.77 31.45L25 26.18L19.73 20.91C19.6565 20.8375 19.5982 20.751 19.5584 20.6558C19.5186 20.5605 19.498 20.4583 19.498 20.355C19.498 20.2517 19.5186 20.1495 19.5584 20.0542C19.5982 19.959 19.6565 19.8726 19.73 19.8C19.8011 19.7261 19.8865 19.6676 19.9811 19.628C20.0757 19.5884 20.1775 19.5687 20.28 19.57C20.3825 19.5693 20.484 19.5893 20.5785 19.6288C20.673 19.6683 20.7586 19.7266 20.83 19.8L26.1 25.07L31.37 19.8C31.5172 19.6528 31.7168 19.5701 31.925 19.5701C32.1332 19.5701 32.3328 19.6528 32.48 19.8C32.6272 19.9472 32.7099 20.1468 32.7099 20.355C32.7099 20.5632 32.6272 20.7628 32.48 20.91L27.21 26.18L32.52 31.44C32.6659 31.5872 32.7473 31.7863 32.7463 31.9935C32.7454 32.2008 32.6622 32.3991 32.515 32.545C32.3678 32.6909 32.1687 32.7723 31.9615 32.7714C31.7543 32.7704 31.5558 32.6872 31.41 32.54L26.14 27.27L20.87 32.54C20.7994 32.6152 20.7142 32.6753 20.6197 32.7166C20.5251 32.7578 20.4232 32.7794 20.32 32.78Z" fill="#7873FF"/>
</svg>
