<svg width="53" height="53" viewBox="0 0 53 53" fill="none" xmlns="http://www.w3.org/2000/svg">
    <path d="M40.2103 0.339966H12.3904C5.73532 0.339966 0.340332 5.73493 0.340332 12.39V40.21C0.340332 46.865 5.73532 52.26 12.3904 52.26H40.2103C46.8654 52.26 52.2603 46.865 52.2603 40.21V12.39C52.2603 5.73493 46.8654 0.339966 40.2103 0.339966Z" fill="#262626"/>
    <path d="M26.3001 40.45C34.1205 40.45 40.4601 34.1104 40.4601 26.29C40.4601 18.4697 34.1205 12.13 26.3001 12.13C18.4798 12.13 12.1401 18.4697 12.1401 26.29C12.1401 34.1104 18.4798 40.45 26.3001 40.45Z" fill="white"/>
    <path d="M24.5503 31.89C24.4464 31.8903 24.3435 31.8702 24.2474 31.8307C24.1513 31.7913 24.0639 31.7332 23.9903 31.66L17.8803 25.55C17.8074 25.4764 17.7497 25.3892 17.7105 25.2934C17.6713 25.1976 17.6514 25.095 17.6519 24.9914C17.6523 24.8879 17.6732 24.7855 17.7132 24.69C17.7533 24.5945 17.8118 24.5078 17.8853 24.435C17.9588 24.3621 18.046 24.3044 18.1418 24.2652C18.2377 24.226 18.3403 24.2061 18.4438 24.2065C18.5474 24.207 18.6498 24.2279 18.7453 24.2679C18.8408 24.308 18.9274 24.3664 19.0003 24.44L24.5603 29.99L33.6303 20.93C33.7032 20.8571 33.7897 20.7993 33.8849 20.7598C33.9802 20.7204 34.0822 20.7001 34.1853 20.7001C34.2884 20.7001 34.3904 20.7204 34.4856 20.7598C34.5809 20.7993 34.6674 20.8571 34.7403 20.93C34.8132 21.0028 34.871 21.0894 34.9104 21.1846C34.9499 21.2798 34.9702 21.3819 34.9702 21.485C34.9702 21.588 34.9499 21.6901 34.9104 21.7853C34.871 21.8806 34.8132 21.9671 34.7403 22.04L25.1103 31.66C25.038 31.7351 24.951 31.7944 24.8545 31.834C24.7581 31.8736 24.6545 31.8926 24.5503 31.89Z" fill="#7873FF"/>
</svg>
