<svg width="53" height="53" viewBox="0 0 53 53" fill="none" xmlns="http://www.w3.org/2000/svg">
    <path d="M40.1302 0.339966H12.3102C5.65521 0.339966 0.260254 5.73493 0.260254 12.39V40.21C0.260254 46.865 5.65521 52.26 12.3102 52.26H40.1302C46.7853 52.26 52.1802 46.865 52.1802 40.21V12.39C52.1802 5.73493 46.7853 0.339966 40.1302 0.339966Z" fill="#262626"/>
    <path d="M18.8601 25.71C22.6046 25.71 25.6401 22.6745 25.6401 18.93C25.6401 15.1855 22.6046 12.15 18.8601 12.15C15.1156 12.15 12.0801 15.1855 12.0801 18.93C12.0801 22.6745 15.1156 25.71 18.8601 25.71Z" fill="white"/>
    <path d="M18.8601 25.72C17.9536 25.721 17.056 25.5408 16.2201 25.19C15.4126 24.8517 14.679 24.3592 14.0601 23.74C13.4431 23.1194 12.9508 22.3861 12.6101 21.58C12.2539 20.7436 12.0703 19.844 12.0703 18.935C12.0703 18.026 12.2539 17.1263 12.6101 16.29C12.9508 15.4838 13.4431 14.7506 14.0601 14.13C14.679 13.5108 15.4126 13.0182 16.2201 12.68C17.0563 12.3301 17.9537 12.15 18.8601 12.15C19.7665 12.15 20.6639 12.3301 21.5001 12.68C23.1304 13.3666 24.429 14.6616 25.1201 16.29C25.4697 17.128 25.6497 18.027 25.6497 18.935C25.6497 19.843 25.4697 20.742 25.1201 21.58C24.5992 22.809 23.7275 23.8571 22.6141 24.5935C21.5007 25.3298 20.195 25.7216 18.8601 25.72ZM18.8601 12.16C17.5187 12.16 16.2075 12.5579 15.0923 13.3033C13.9772 14.0487 13.1081 15.1082 12.5953 16.3477C12.0824 17.5872 11.9487 18.9509 12.2112 20.2664C12.4736 21.5818 13.1203 22.7899 14.0695 23.7377C15.0187 24.6855 16.2277 25.3304 17.5436 25.5909C18.8594 25.8514 20.223 25.7157 21.4617 25.201C22.7004 24.6863 23.7586 23.8157 24.5024 22.6995C25.2462 21.5832 25.6421 20.2714 25.6401 18.93C25.6375 17.1335 24.922 15.4116 23.6508 14.1423C22.3795 12.8729 20.6565 12.16 18.8601 12.16Z" fill="black"/>
    <path d="M18.1499 21.74C18.0491 21.7396 17.9523 21.7002 17.8799 21.63L14.9999 18.7C14.9296 18.6297 14.8901 18.5344 14.8901 18.435C14.8901 18.3356 14.9296 18.2403 14.9999 18.17C15.0702 18.0997 15.1655 18.0602 15.2649 18.0602C15.3643 18.0602 15.4596 18.0997 15.5299 18.17L18.1999 20.83L22.5399 16.49C22.5747 16.4552 22.616 16.4276 22.6614 16.4088C22.7069 16.3899 22.7557 16.3802 22.8049 16.3802C22.8541 16.3802 22.9028 16.3899 22.9483 16.4088C22.9938 16.4276 23.0351 16.4552 23.0699 16.49C23.1047 16.5248 23.1323 16.5661 23.1511 16.6116C23.17 16.6571 23.1796 16.7058 23.1796 16.755C23.1796 16.8042 23.17 16.853 23.1511 16.8984C23.1323 16.9439 23.1047 16.9852 23.0699 17.02L18.4599 21.63C18.4207 21.6717 18.3721 21.7034 18.3182 21.7225C18.2643 21.7416 18.2066 21.7476 18.1499 21.74Z" fill="#0C0C0C"/>
    <path d="M17.9999 21.62C17.8992 21.6186 17.8028 21.5793 17.7299 21.51L14.8099 18.58C14.7742 18.5447 14.7459 18.5026 14.7266 18.4563C14.7072 18.4099 14.6973 18.3602 14.6973 18.31C14.6973 18.2598 14.7072 18.2101 14.7266 18.1637C14.7459 18.1174 14.7742 18.0753 14.8099 18.04C14.882 17.9732 14.9766 17.9361 15.0749 17.9361C15.1732 17.9361 15.2678 17.9732 15.3399 18.04L17.9999 20.71L22.3399 16.36C22.3754 16.3245 22.4174 16.2964 22.4637 16.2772C22.5101 16.258 22.5597 16.2482 22.6099 16.2482C22.66 16.2482 22.7097 16.258 22.756 16.2772C22.8023 16.2964 22.8444 16.3245 22.8799 16.36C22.9153 16.3955 22.9435 16.4376 22.9626 16.4839C22.9818 16.5302 22.9917 16.5799 22.9917 16.63C22.9917 16.6801 22.9818 16.7298 22.9626 16.7761C22.9435 16.8225 22.9153 16.8645 22.8799 16.9L18.2699 21.51C18.1975 21.5802 18.1007 21.6196 17.9999 21.62Z" fill="#7873FF"/>
    <path d="M33.5803 25.71C37.3248 25.71 40.3603 22.6745 40.3603 18.93C40.3603 15.1855 37.3248 12.15 33.5803 12.15C29.8358 12.15 26.8003 15.1855 26.8003 18.93C26.8003 22.6745 29.8358 25.71 33.5803 25.71Z" fill="white"/>
    <path d="M33.5799 25.72C32.2456 25.7249 30.9397 25.3343 29.8273 24.5974C28.7149 23.8606 27.8458 22.8105 27.3299 21.58C26.9737 20.7436 26.79 19.844 26.79 18.935C26.79 18.026 26.9737 17.1263 27.3299 16.29C28.0133 14.6598 29.3097 13.3634 30.9399 12.68C31.7779 12.3304 32.6769 12.1504 33.5849 12.1504C34.4929 12.1504 35.3919 12.3304 36.2299 12.68C37.0329 13.0209 37.7629 13.5132 38.3799 14.13C39.0031 14.7476 39.4991 15.4814 39.8399 16.29C40.1895 17.128 40.3694 18.027 40.3694 18.935C40.3694 19.843 40.1895 20.742 39.8399 21.58C39.4991 22.3885 39.0031 23.1224 38.3799 23.74C37.7524 24.375 37.0049 24.8789 36.1808 25.2223C35.3568 25.5657 34.4726 25.7416 33.5799 25.74V25.72ZM33.5799 12.16C32.2385 12.16 30.9273 12.5579 29.8121 13.3033C28.6969 14.0487 27.8279 15.1082 27.315 16.3477C26.8021 17.5872 26.6685 18.9509 26.9309 20.2664C27.1933 21.5818 27.84 22.7899 28.7892 23.7377C29.7384 24.6855 30.9475 25.3304 32.2633 25.5909C33.5792 25.8514 34.9427 25.7157 36.1814 25.201C37.4201 24.6863 38.4783 23.8157 39.2221 22.6995C39.9659 21.5832 40.3618 20.2714 40.3599 18.93C40.3572 17.1335 39.6418 15.4116 38.3705 14.1423C37.0993 12.8729 35.3763 12.16 33.5799 12.16Z" fill="black"/>
    <path d="M32.8702 21.74C32.7694 21.7396 32.6726 21.7002 32.6002 21.63L29.6702 18.7C29.6035 18.6279 29.5664 18.5333 29.5664 18.435C29.5664 18.3367 29.6035 18.2421 29.6702 18.17C29.7056 18.1343 29.7476 18.106 29.7939 18.0867C29.8403 18.0674 29.89 18.0574 29.9402 18.0574C29.9905 18.0574 30.0401 18.0674 30.0865 18.0867C30.1328 18.106 30.1749 18.1343 30.2103 18.17L32.8702 20.83L37.2103 16.49C37.2805 16.4197 37.3758 16.3802 37.4752 16.3802C37.5746 16.3802 37.67 16.4197 37.7402 16.49C37.8105 16.5603 37.85 16.6556 37.85 16.755C37.85 16.8544 37.8105 16.9497 37.7402 17.02L33.1302 21.63C33.0966 21.6649 33.0562 21.6927 33.0115 21.7116C32.9668 21.7305 32.9188 21.7401 32.8702 21.74Z" fill="#0C0C0C"/>
    <path d="M32.7401 21.62C32.6916 21.6201 32.6436 21.6105 32.5989 21.5916C32.5542 21.5727 32.5138 21.5449 32.4801 21.51L29.5501 18.58C29.5144 18.5447 29.4861 18.5026 29.4668 18.4563C29.4475 18.4099 29.4375 18.3602 29.4375 18.31C29.4375 18.2598 29.4475 18.2101 29.4668 18.1637C29.4861 18.1174 29.5144 18.0753 29.5501 18.04C29.6222 17.9732 29.7169 17.9361 29.8151 17.9361C29.9134 17.9361 30.008 17.9732 30.0801 18.04L32.7401 20.71L37.0801 16.36C37.1156 16.3245 37.1577 16.2964 37.204 16.2772C37.2503 16.258 37.3 16.2482 37.3501 16.2482C37.4002 16.2482 37.4499 16.258 37.4962 16.2772C37.5425 16.2964 37.5847 16.3245 37.6201 16.36C37.6556 16.3955 37.6837 16.4376 37.7029 16.4839C37.7221 16.5302 37.7319 16.5799 37.7319 16.63C37.7319 16.6801 37.7221 16.7298 37.7029 16.7761C37.6837 16.8225 37.6556 16.8645 37.6201 16.9L33.0001 21.51C32.9302 21.5779 32.8375 21.6171 32.7401 21.62Z" fill="#7873FF"/>
    <path d="M18.8601 40.44C22.6046 40.44 25.6401 37.4045 25.6401 33.66C25.6401 29.9155 22.6046 26.88 18.8601 26.88C15.1156 26.88 12.0801 29.9155 12.0801 33.66C12.0801 37.4045 15.1156 40.44 18.8601 40.44Z" fill="white"/>
    <path d="M18.8601 40.44C17.9531 40.4461 17.0545 40.2657 16.2201 39.91C15.411 39.5658 14.6772 39.0664 14.0601 38.44C13.4431 37.8194 12.9508 37.0861 12.6101 36.28C12.2539 35.4437 12.0703 34.544 12.0703 33.635C12.0703 32.726 12.2539 31.8263 12.6101 30.99C12.9508 30.1839 13.4431 29.4506 14.0601 28.83C14.6842 28.2323 15.4175 27.7604 16.2201 27.44C17.0563 27.0902 17.9537 26.91 18.8601 26.91C19.7665 26.91 20.6639 27.0902 21.5001 27.44C23.1304 28.1267 24.429 29.4216 25.1201 31.05C25.4697 31.888 25.6497 32.787 25.6497 33.695C25.6497 34.603 25.4697 35.502 25.1201 36.34C24.429 37.9684 23.1304 39.2633 21.5001 39.95C20.6631 40.2928 19.7644 40.4596 18.8601 40.44ZM18.8601 26.88C17.5192 26.88 16.2083 27.2776 15.0934 28.0226C13.9784 28.7676 13.1094 29.8265 12.5962 31.0654C12.0831 32.3043 11.9488 33.6675 12.2104 34.9827C12.472 36.2979 13.1177 37.506 14.0659 38.4542C15.0141 39.4024 16.2222 40.0481 17.5374 40.3097C18.8526 40.5713 20.2158 40.4371 21.4547 39.9239C22.6936 39.4107 23.7525 38.5417 24.4975 37.4268C25.2425 36.3118 25.6401 35.001 25.6401 33.66C25.6375 31.8627 24.9223 30.1397 23.6514 28.8687C22.3804 27.5978 20.6575 26.8827 18.8601 26.88Z" fill="black"/>
    <path d="M18.1499 36.44C18.0491 36.4396 17.9523 36.4002 17.8799 36.33L14.9999 33.44C14.9296 33.3697 14.8901 33.2744 14.8901 33.175C14.8901 33.0756 14.9296 32.9803 14.9999 32.91C15.0702 32.8397 15.1655 32.8002 15.2649 32.8002C15.3643 32.8002 15.4596 32.8397 15.5299 32.91L18.1999 35.57L22.5399 31.23C22.5747 31.1952 22.616 31.1676 22.6614 31.1488C22.7069 31.1299 22.7557 31.1202 22.8049 31.1202C22.8541 31.1202 22.9028 31.1299 22.9483 31.1488C22.9938 31.1676 23.0351 31.1952 23.0699 31.23C23.1047 31.2648 23.1323 31.3061 23.1511 31.3516C23.17 31.3971 23.1796 31.4458 23.1796 31.495C23.1796 31.5442 23.17 31.593 23.1511 31.6384C23.1323 31.6839 23.1047 31.7252 23.0699 31.76L18.4599 36.37C18.417 36.4046 18.3668 36.4289 18.313 36.4411C18.2593 36.4532 18.2035 36.4528 18.1499 36.44Z" fill="#0C0C0C"/>
    <path d="M17.9999 36.34C17.8993 36.3386 17.8029 36.2993 17.7299 36.23L14.8099 33.3C14.7397 33.2297 14.7002 33.1344 14.7002 33.035C14.7002 32.9356 14.7397 32.8403 14.8099 32.77C14.8802 32.6997 14.9756 32.6602 15.075 32.6602C15.1743 32.6602 15.2697 32.6997 15.34 32.77L17.9999 35.44L22.34 31.09C22.3754 31.0545 22.4175 31.0264 22.4638 31.0072C22.5101 30.988 22.5598 30.9781 22.6099 30.9781C22.6601 30.9781 22.7097 30.988 22.756 31.0072C22.8024 31.0264 22.8445 31.0545 22.8799 31.09C22.9154 31.1254 22.9435 31.1675 22.9627 31.2139C22.9819 31.2602 22.9918 31.3098 22.9918 31.36C22.9918 31.4101 22.9819 31.4598 22.9627 31.5061C22.9435 31.5524 22.9154 31.5945 22.8799 31.63L18.27 36.24C18.196 36.3065 18.0994 36.3423 17.9999 36.34Z" fill="#7873FF"/>
    <path d="M33.5803 40.44C37.3248 40.44 40.3603 37.4045 40.3603 33.66C40.3603 29.9155 37.3248 26.88 33.5803 26.88C29.8358 26.88 26.8003 29.9155 26.8003 33.66C26.8003 37.4045 29.8358 40.44 33.5803 40.44Z" fill="white"/>
    <path d="M33.5799 40.44C32.673 40.4449 31.7746 40.2646 30.9399 39.91C29.3097 39.2266 28.0133 37.9302 27.3299 36.3C26.9737 35.4637 26.79 34.564 26.79 33.655C26.79 32.746 26.9737 31.8463 27.3299 31.01C27.764 29.9936 28.44 29.0988 29.299 28.4034C30.158 27.7081 31.174 27.2332 32.2585 27.0203C33.343 26.8073 34.4631 26.8627 35.5213 27.1816C36.5795 27.5005 37.5437 28.0733 38.3299 28.85C38.9531 29.4676 39.4491 30.2015 39.7899 31.01C40.1394 31.848 40.3195 32.747 40.3195 33.655C40.3195 34.563 40.1394 35.462 39.7899 36.3C39.4617 37.0973 38.983 37.8239 38.3799 38.44C37.7629 39.0568 37.0329 39.5491 36.2299 39.89C35.3934 40.2525 34.4915 40.4397 33.5799 40.44ZM33.5799 26.88C32.2389 26.88 30.9281 27.2776 29.8131 28.0226C28.6981 28.7676 27.8291 29.8265 27.316 31.0654C26.8028 32.3043 26.6686 33.6675 26.9302 34.9827C27.1918 36.2979 27.8375 37.506 28.7857 38.4542C29.7339 39.4024 30.9419 40.0481 32.2571 40.3097C33.5723 40.5713 34.9356 40.4371 36.1745 39.9239C37.4134 39.4107 38.4722 38.5417 39.2172 37.4268C39.9622 36.3118 40.3599 35.001 40.3599 33.66C40.3599 31.8618 39.6456 30.1373 38.3741 28.8658C37.1026 27.5943 35.3781 26.88 33.5799 26.88Z" fill="black"/>
    <path d="M32.8702 36.44C32.7694 36.4396 32.6726 36.4002 32.6002 36.33L29.6702 33.44C29.6035 33.3679 29.5664 33.2733 29.5664 33.175C29.5664 33.0767 29.6035 32.9821 29.6702 32.91C29.7056 32.8743 29.7476 32.846 29.7939 32.8267C29.8403 32.8074 29.89 32.7974 29.9402 32.7974C29.9905 32.7974 30.0401 32.8074 30.0865 32.8267C30.1328 32.846 30.1749 32.8743 30.2103 32.91L32.8702 35.57L37.2103 31.23C37.2451 31.1952 37.2864 31.1676 37.3318 31.1488C37.3773 31.1299 37.426 31.1202 37.4752 31.1202C37.5244 31.1202 37.5732 31.1299 37.6187 31.1488C37.6641 31.1676 37.7054 31.1952 37.7402 31.23C37.775 31.2648 37.8026 31.3061 37.8215 31.3516C37.8403 31.3971 37.85 31.4458 37.85 31.495C37.85 31.5442 37.8403 31.593 37.8215 31.6384C37.8026 31.6839 37.775 31.7252 37.7402 31.76L33.1302 36.37C33.0559 36.4261 32.9627 36.4512 32.8702 36.44Z" fill="#0C0C0C"/>
    <path d="M32.7402 36.34C32.6917 36.3401 32.6436 36.3304 32.5989 36.3115C32.5543 36.2926 32.5139 36.2649 32.4802 36.23L29.5502 33.3C29.5154 33.2652 29.4878 33.2239 29.4689 33.1784C29.4501 33.1329 29.4404 33.0842 29.4404 33.035C29.4404 32.9858 29.4501 32.937 29.4689 32.8916C29.4878 32.8461 29.5154 32.8048 29.5502 32.77C29.585 32.7352 29.6263 32.7076 29.6718 32.6887C29.7172 32.6699 29.766 32.6602 29.8152 32.6602C29.8644 32.6602 29.9131 32.6699 29.9586 32.6887C30.0041 32.7076 30.0454 32.7352 30.0802 32.77L32.7402 35.44L37.0802 31.09C37.1157 31.0545 37.1577 31.0264 37.204 31.0072C37.2504 30.988 37.3 30.9781 37.3502 30.9781C37.4003 30.9781 37.45 30.988 37.4963 31.0072C37.5426 31.0264 37.5847 31.0545 37.6202 31.09C37.6556 31.1254 37.6838 31.1675 37.7029 31.2139C37.7221 31.2602 37.732 31.3098 37.732 31.36C37.732 31.4101 37.7221 31.4598 37.7029 31.5061C37.6838 31.5524 37.6556 31.5945 37.6202 31.63L33.0002 36.23C32.9303 36.2978 32.8375 36.3371 32.7402 36.34Z" fill="#7873FF"/>
</svg>