<svg width="15" height="15" viewBox="0 0 25 24" fill="none" xmlns="http://www.w3.org/2000/svg">
<g filter="url(#filter0_d)">
<mask id="path-1-inside-1" fill="white">
<path d="M20.23 15.73C20.1993 15.7612 20.1627 15.7859 20.1223 15.8027C20.082 15.8196 20.0387 15.8283 19.995 15.8283C19.9513 15.8283 19.908 15.8196 19.8676 15.8027C19.8273 15.7859 19.7907 15.7612 19.76 15.73L12.58 8.55L5.40997 15.73C5.37927 15.7612 5.34271 15.7859 5.30237 15.8027C5.26203 15.8196 5.21872 15.8283 5.17499 15.8283C5.13126 15.8283 5.08795 15.8196 5.04761 15.8027C5.00726 15.7859 4.9707 15.7612 4.94 15.73C4.90916 15.7002 4.88461 15.6644 4.86786 15.6249C4.85111 15.5854 4.84247 15.5429 4.84247 15.5C4.84247 15.4571 4.85111 15.4146 4.86786 15.3751C4.88461 15.3356 4.90916 15.2998 4.94 15.27L12.12 8.09L4.94 0.910004C4.90916 0.880165 4.88461 0.844429 4.86786 0.804916C4.85111 0.765404 4.84247 0.722925 4.84247 0.680008C4.84247 0.637091 4.85111 0.594612 4.86786 0.555099C4.88461 0.515587 4.90916 0.479836 4.94 0.449997C4.9707 0.418855 5.00726 0.394137 5.04761 0.377258C5.08795 0.360379 5.13126 0.351685 5.17499 0.351685C5.21872 0.351685 5.26203 0.360379 5.30237 0.377258C5.34271 0.394137 5.37927 0.418855 5.40997 0.449997L12.58 7.62001L19.76 0.449997C19.7907 0.418855 19.8273 0.394137 19.8676 0.377258C19.908 0.360379 19.9513 0.351685 19.995 0.351685C20.0387 0.351685 20.082 0.360379 20.1223 0.377258C20.1627 0.394137 20.1993 0.418855 20.23 0.449997C20.2876 0.512732 20.3196 0.594824 20.3196 0.680008C20.3196 0.765192 20.2876 0.847268 20.23 0.910004L13.05 8.09L20.23 15.27C20.2876 15.3327 20.3196 15.4148 20.3196 15.5C20.3196 15.5852 20.2876 15.6673 20.23 15.73Z"/>
</mask>
<path d="M20.23 15.73C20.1993 15.7612 20.1627 15.7859 20.1223 15.8027C20.082 15.8196 20.0387 15.8283 19.995 15.8283C19.9513 15.8283 19.908 15.8196 19.8676 15.8027C19.8273 15.7859 19.7907 15.7612 19.76 15.73L12.58 8.55L5.40997 15.73C5.37927 15.7612 5.34271 15.7859 5.30237 15.8027C5.26203 15.8196 5.21872 15.8283 5.17499 15.8283C5.13126 15.8283 5.08795 15.8196 5.04761 15.8027C5.00726 15.7859 4.9707 15.7612 4.94 15.73C4.90916 15.7002 4.88461 15.6644 4.86786 15.6249C4.85111 15.5854 4.84247 15.5429 4.84247 15.5C4.84247 15.4571 4.85111 15.4146 4.86786 15.3751C4.88461 15.3356 4.90916 15.2998 4.94 15.27L12.12 8.09L4.94 0.910004C4.90916 0.880165 4.88461 0.844429 4.86786 0.804916C4.85111 0.765404 4.84247 0.722925 4.84247 0.680008C4.84247 0.637091 4.85111 0.594612 4.86786 0.555099C4.88461 0.515587 4.90916 0.479836 4.94 0.449997C4.9707 0.418855 5.00726 0.394137 5.04761 0.377258C5.08795 0.360379 5.13126 0.351685 5.17499 0.351685C5.21872 0.351685 5.26203 0.360379 5.30237 0.377258C5.34271 0.394137 5.37927 0.418855 5.40997 0.449997L12.58 7.62001L19.76 0.449997C19.7907 0.418855 19.8273 0.394137 19.8676 0.377258C19.908 0.360379 19.9513 0.351685 19.995 0.351685C20.0387 0.351685 20.082 0.360379 20.1223 0.377258C20.1627 0.394137 20.1993 0.418855 20.23 0.449997C20.2876 0.512732 20.3196 0.594824 20.3196 0.680008C20.3196 0.765192 20.2876 0.847268 20.23 0.910004L13.05 8.09L20.23 15.27C20.2876 15.3327 20.3196 15.4148 20.3196 15.5C20.3196 15.5852 20.2876 15.6673 20.23 15.73Z" fill="white"/>
<path d="M20.23 15.73L20.9421 16.4321L20.9545 16.4195L20.9665 16.4065L20.23 15.73ZM19.995 15.8283L19.995 16.8283L19.995 15.8283ZM19.76 15.73L20.4721 15.0279L20.4671 15.0229L19.76 15.73ZM12.58 8.55L13.2871 7.8429L12.5795 7.1353L11.8724 7.84339L12.58 8.55ZM5.40997 15.73L4.70236 15.0234L4.69785 15.028L5.40997 15.73ZM5.17499 15.8283L5.17499 16.8283L5.17499 15.8283ZM4.94 15.73L5.65212 15.028L5.6438 15.0195L5.63527 15.0113L4.94 15.73ZM4.84247 15.5L3.84247 15.5L4.84247 15.5ZM4.94 15.27L5.63527 15.9888L5.64124 15.983L5.64711 15.9771L4.94 15.27ZM12.12 8.09L12.8271 8.7971L13.5342 8.09L12.8271 7.38289L12.12 8.09ZM4.94 0.910004L5.64711 0.202897L5.64124 0.197026L5.63527 0.191254L4.94 0.910004ZM4.84247 0.680008L3.84247 0.680008L4.84247 0.680008ZM4.94 0.449997L5.63527 1.16875L5.6438 1.1605L5.65212 1.15205L4.94 0.449997ZM5.17499 0.351685L5.17499 -0.648315L5.17499 0.351685ZM5.40997 0.449997L4.69783 1.15207L4.70287 1.1571L5.40997 0.449997ZM12.58 7.62001L11.8729 8.32712L12.5795 9.03373L13.2866 8.32761L12.58 7.62001ZM19.76 0.449997L20.4666 1.15762L20.4721 1.15205L19.76 0.449997ZM19.995 0.351685L19.995 -0.648315L19.995 0.351685ZM20.23 0.449997L20.9665 -0.226474L20.9545 -0.239482L20.9421 -0.25206L20.23 0.449997ZM20.23 0.910004L20.9371 1.61711L20.9521 1.6021L20.9665 1.58647L20.23 0.910004ZM13.05 8.09L12.3429 7.38289L11.6358 8.09L12.3429 8.7971L13.05 8.09ZM20.23 15.27L20.9665 14.5935L20.9521 14.5779L20.9371 14.5629L20.23 15.27ZM19.5179 15.028C19.5803 14.9646 19.6546 14.9144 19.7364 14.8802L20.5083 16.7253C20.6707 16.6573 20.8182 16.5577 20.9421 16.4321L19.5179 15.028ZM19.7364 14.8802C19.8182 14.846 19.9061 14.8283 19.995 14.8283L19.995 16.8283C20.1713 16.8283 20.3458 16.7932 20.5083 16.7253L19.7364 14.8802ZM19.995 14.8283C20.0838 14.8283 20.1717 14.846 20.2536 14.8802L19.4816 16.7253C19.6442 16.7933 19.8187 16.8283 19.995 16.8283L19.995 14.8283ZM20.2536 14.8802C20.3353 14.9144 20.4096 14.9646 20.4721 15.028L19.0479 16.4321C19.1717 16.5577 19.3192 16.6573 19.4816 16.7253L20.2536 14.8802ZM20.4671 15.0229L13.2871 7.8429L11.8729 9.25711L19.0529 16.4371L20.4671 15.0229ZM11.8724 7.84339L4.70237 15.0234L6.11757 16.4366L13.2876 9.25662L11.8724 7.84339ZM4.69785 15.028C4.76014 14.9648 4.83443 14.9145 4.9164 14.8802L5.68834 16.7253C5.851 16.6572 5.99841 16.5575 6.12209 16.4321L4.69785 15.028ZM4.9164 14.8802C4.9983 14.846 5.08619 14.8283 5.17499 14.8283L5.17499 16.8283C5.35125 16.8283 5.52575 16.7933 5.68834 16.7253L4.9164 14.8802ZM5.17499 14.8283C5.26378 14.8283 5.35168 14.846 5.43358 14.8802L4.66164 16.7253C4.82423 16.7933 4.99873 16.8283 5.17499 16.8283L5.17499 14.8283ZM5.43358 14.8802C5.51555 14.9145 5.58984 14.9648 5.65212 15.028L4.22788 16.4321C4.35157 16.5575 4.49898 16.6572 4.66164 16.7253L5.43358 14.8802ZM5.63527 15.0113C5.70075 15.0746 5.75289 15.1505 5.78853 15.2346L3.94719 16.0152C4.01633 16.1783 4.11756 16.3257 4.24473 16.4488L5.63527 15.0113ZM5.78853 15.2346C5.8241 15.3185 5.84247 15.4087 5.84247 15.5L3.84247 15.5C3.84247 15.6771 3.87812 15.8523 3.94719 16.0152L5.78853 15.2346ZM5.84247 15.5C5.84247 15.5913 5.8241 15.6815 5.78853 15.7654L3.94719 14.9848C3.87812 15.1477 3.84247 15.3229 3.84247 15.5L5.84247 15.5ZM5.78853 15.7654C5.75284 15.8496 5.70066 15.9255 5.63527 15.9888L4.24473 14.5513C4.11766 14.6742 4.01638 14.8215 3.94719 14.9848L5.78853 15.7654ZM5.64711 15.9771L12.8271 8.7971L11.4129 7.38289L4.23289 14.5629L5.64711 15.9771ZM12.8271 7.38289L5.64711 0.202897L4.2329 1.61711L11.4129 8.7971L12.8271 7.38289ZM5.63527 0.191254C5.70066 0.254502 5.75284 0.3304 5.78853 0.414576L3.94719 1.19526C4.01638 1.35846 4.11766 1.50583 4.24473 1.62875L5.63527 0.191254ZM5.78853 0.414576C5.8241 0.498464 5.84247 0.588726 5.84247 0.680008L3.84247 0.680008C3.84247 0.857125 3.87812 1.03234 3.94719 1.19526L5.78853 0.414576ZM5.84247 0.680008C5.84247 0.77129 5.8241 0.861552 5.78853 0.94544L3.94719 0.164759C3.87812 0.327673 3.84247 0.502891 3.84247 0.680008L5.84247 0.680008ZM5.78853 0.94544C5.75289 1.02949 5.70075 1.1054 5.63527 1.16875L4.24473 -0.268753C4.11756 -0.145731 4.01633 0.00168387 3.94719 0.164759L5.78853 0.94544ZM5.65212 1.15205C5.58984 1.21523 5.51555 1.26547 5.43358 1.29977L4.66164 -0.545254C4.49898 -0.477199 4.35157 -0.377521 4.22788 -0.25206L5.65212 1.15205ZM5.43358 1.29977C5.35168 1.33404 5.26378 1.35168 5.17499 1.35168L5.17499 -0.648315C4.99873 -0.648315 4.82423 -0.613278 4.66164 -0.545254L5.43358 1.29977ZM5.17499 1.35168C5.08619 1.35168 4.9983 1.33404 4.9164 1.29977L5.68834 -0.545254C5.52575 -0.613278 5.35125 -0.648315 5.17499 -0.648315L5.17499 1.35168ZM4.9164 1.29977C4.83443 1.26547 4.76014 1.21523 4.69785 1.15205L6.12209 -0.25206C5.99841 -0.377521 5.851 -0.477199 5.68834 -0.545254L4.9164 1.29977ZM4.70287 1.1571L11.8729 8.32712L13.2871 6.9129L6.11708 -0.25711L4.70287 1.1571ZM13.2866 8.32761L20.4666 1.1576L19.0534 -0.257601L11.8734 6.91241L13.2866 8.32761ZM20.4721 1.15205C20.4096 1.21542 20.3353 1.26558 20.2536 1.29977L19.4816 -0.545254C19.3192 -0.477302 19.1717 -0.377711 19.0479 -0.25206L20.4721 1.15205ZM20.2536 1.29977C20.1717 1.33404 20.0838 1.35168 19.995 1.35168L19.995 -0.648315C19.8187 -0.648315 19.6442 -0.613278 19.4816 -0.545254L20.2536 1.29977ZM19.995 1.35168C19.9061 1.35168 19.8182 1.334 19.7364 1.29977L20.5083 -0.545254C20.3458 -0.613242 20.1713 -0.648315 19.995 -0.648315L19.995 1.35168ZM19.7364 1.29977C19.6546 1.26558 19.5803 1.21542 19.5179 1.15205L20.9421 -0.25206C20.8182 -0.377711 20.6707 -0.477302 20.5083 -0.545254L19.7364 1.29977ZM19.4935 1.12647C19.3816 1.00466 19.3196 0.845325 19.3196 0.680008H21.3196C21.3196 0.344323 21.1936 0.0208069 20.9665 -0.226474L19.4935 1.12647ZM19.3196 0.680008C19.3196 0.514643 19.3817 0.355308 19.4935 0.233533L20.9665 1.58647C21.1936 1.33923 21.3196 1.01574 21.3196 0.680008H19.3196ZM19.5229 0.202897L12.3429 7.38289L13.7571 8.7971L20.9371 1.61711L19.5229 0.202897ZM12.3429 8.7971L19.5229 15.9771L20.9371 14.5629L13.7571 7.38289L12.3429 8.7971ZM19.4935 15.9465C19.3817 15.8247 19.3196 15.6654 19.3196 15.5H21.3196C21.3196 15.1643 21.1936 14.8408 20.9665 14.5935L19.4935 15.9465ZM19.3196 15.5C19.3196 15.3347 19.3816 15.1754 19.4935 15.0535L20.9665 16.4065C21.1936 16.1592 21.3196 15.8357 21.3196 15.5H19.3196Z" fill="white" mask="url(#path-1-inside-1)"/>
</g>
<defs>
<filter id="filter0_d" x="0.842468" y="0.351685" width="23.4771" height="23.4766" filterUnits="userSpaceOnUse" color-interpolation-filters="sRGB">
<feFlood flood-opacity="0" result="BackgroundImageFix"/>
<feColorMatrix in="SourceAlpha" type="matrix" values="0 0 0 0 0 0 0 0 0 0 0 0 0 0 0 0 0 0 127 0"/>
<feOffset dy="4"/>
<feGaussianBlur stdDeviation="2"/>
<feColorMatrix type="matrix" values="0 0 0 0 0 0 0 0 0 0 0 0 0 0 0 0 0 0 0.25 0"/>
<feBlend mode="normal" in2="BackgroundImageFix" result="effect1_dropShadow"/>
<feBlend mode="normal" in="SourceGraphic" in2="effect1_dropShadow" result="shape"/>
</filter>
</defs>
</svg>
