<svg width="8" height="7" viewBox="0 0 8 7" fill="none" xmlns="http://www.w3.org/2000/svg">
<path d="M7.01847 6.30002L3.96848 1.02002C3.94862 0.979976 3.91797 0.946259 3.87998 0.922699C3.842 0.899139 3.79822 0.886658 3.75352 0.886658C3.70882 0.886658 3.66498 0.899139 3.62699 0.922699C3.58901 0.946259 3.55836 0.979976 3.53849 1.02002L0.538492 6.30002C0.517633 6.33814 0.507075 6.38105 0.507853 6.4245C0.50863 6.46795 0.520738 6.51044 0.542948 6.54779C0.565157 6.58514 0.596698 6.61605 0.6345 6.63748C0.672302 6.65892 0.715068 6.67013 0.758524 6.67001H6.7985C6.84196 6.67013 6.88472 6.65892 6.92253 6.63748C6.96033 6.61605 6.99187 6.58514 7.01408 6.54779C7.03629 6.51044 7.0484 6.46795 7.04917 6.4245C7.04995 6.38105 7.03933 6.33814 7.01847 6.30002Z" fill="#7873FF"/>
</svg>
